<svg width="600" height="469" viewBox="0 0 600 469" fill="none" xmlns="http://www.w3.org/2000/svg">
<path d="M579.272 352.77C579.272 405.149 523.972 447.619 455.778 447.619H142.549C74.3394 447.619 19.0476 405.149 19.0476 352.77V112.216C19.0476 59.8311 74.3394 17.3669 142.549 17.3669H455.778C523.972 17.3669 579.272 59.8311 579.272 112.216V352.77V352.77Z" stroke="white" stroke-width="10" stroke-miterlimit="10"/>
<path d="M491.531 180.036C504.362 212.098 488.78 248.484 456.718 261.328C424.669 274.159 388.263 258.583 375.439 226.515L343.99 147.967C331.159 115.905 346.741 79.5124 378.803 66.6814C410.865 53.8441 447.251 69.4322 460.089 101.494L491.531 180.036Z" stroke="white" stroke-width="10" stroke-miterlimit="10"/>
<path d="M403.982 132.937L394.298 107.479" stroke="white" stroke-width="10" stroke-miterlimit="10" stroke-linecap="round"/>
<path d="M428.739 66.1431C430.988 69.848 432.989 73.8256 434.68 78.0572L466.123 156.599C478.954 188.661 469.326 222.662 444.612 232.569C419.904 242.463 389.459 224.496 376.628 192.428L345.179 113.88C343.841 110.528 342.744 107.158 341.889 103.794" stroke="white" stroke-width="10" stroke-miterlimit="10"/>
<path d="M144.011 300.014C133.546 300.014 128.314 310.417 128.314 331.224V339.47C128.314 349.351 129.698 357.11 132.466 362.746C135.234 368.313 139.319 371.097 144.719 371.097C152.146 371.097 158.964 363.651 165.175 348.759H166.998L166.289 372.036H165.175C164.77 371.271 164.399 370.749 164.061 370.47C163.724 370.122 163.218 369.949 162.542 369.949C161.935 369.949 159.504 370.505 155.251 371.619C150.998 372.662 146.677 373.184 142.289 373.184C131.285 373.184 122.745 370.122 116.669 363.999C110.66 357.875 107.656 348.69 107.656 336.443C107.656 324.126 110.795 314.627 117.074 307.947C123.42 301.266 131.926 297.926 142.593 297.926C146.711 297.926 150.728 298.483 154.644 299.596C158.627 300.64 160.956 301.162 161.631 301.162C162.306 301.162 162.812 301.023 163.15 300.745C163.488 300.397 163.859 299.84 164.264 299.074H165.378L166.188 321.725H164.365C161.327 314.697 158.188 309.339 154.947 305.65C151.774 301.893 148.129 300.014 144.011 300.014Z" fill="white"/>
<path d="M206.154 351.578V342.705C206.154 335.955 205.783 331.05 205.04 327.988C204.365 324.856 202.745 323.291 200.18 323.291C198.694 323.291 197.479 323.743 196.534 324.648C195.656 325.483 195.015 326.909 194.61 328.927C194.002 332.059 193.699 336.825 193.699 343.227V351.369C193.699 358.954 193.901 363.512 194.306 365.043C194.779 366.574 195.251 367.826 195.724 368.8C196.467 370.47 197.918 371.305 200.078 371.305C202.711 371.305 204.433 369.74 205.243 366.608C205.851 364.382 206.154 359.371 206.154 351.578ZM199.876 373.184C191.437 373.184 185.057 370.958 180.736 366.504C176.416 362.05 174.255 355.683 174.255 347.402C174.255 339.052 176.551 332.65 181.141 328.197C185.8 323.673 192.315 321.412 200.686 321.412C209.057 321.412 215.302 323.499 219.42 327.675C223.539 331.78 225.598 338.078 225.598 346.567C225.598 364.312 217.024 373.184 199.876 373.184Z" fill="white"/>
<path d="M248.987 350.534C248.987 357.84 249.358 362.712 250.101 365.147C250.844 367.513 252.194 368.696 254.152 368.696C256.177 368.696 257.899 367.791 259.316 365.982C260.802 364.173 261.544 361.494 261.544 357.945V335.19C261.544 332.198 260.97 329.658 259.823 327.57C258.675 325.483 256.987 324.439 254.759 324.439C252.531 324.439 251.012 325.97 250.202 329.032C249.392 332.093 248.987 337.452 248.987 345.106V350.534ZM262.861 372.14L261.747 364.834C259.451 370.401 254.793 373.184 247.772 373.184C241.966 373.184 237.443 371.027 234.202 366.713C231.029 362.398 229.443 355.962 229.443 347.402C229.443 330.075 236.126 321.412 249.493 321.412C255.434 321.412 259.35 323.117 261.24 326.526V295.734H255.063V293.855H280.38V370.262H285.342V372.14H262.861Z" fill="white"/>
<path d="M314.597 373.184C305.888 373.184 299.339 370.888 294.951 366.295C290.63 361.633 288.47 355.196 288.47 346.985C288.47 338.704 290.901 332.372 295.761 327.988C300.69 323.604 306.934 321.412 314.496 321.412C329.821 321.412 337.179 329.345 336.572 345.21H308.015V349.281C308.015 356.101 308.859 361.25 310.546 364.73C312.234 368.209 315.171 369.949 319.356 369.949C327.188 369.949 332.319 365.634 334.749 357.005L336.572 357.319C335.289 362.329 332.96 366.226 329.584 369.009C326.276 371.793 321.281 373.184 314.597 373.184ZM308.116 343.123H318.546V338.008C318.546 332.372 318.209 328.544 317.534 326.526C316.926 324.439 315.643 323.395 313.686 323.395C311.795 323.395 310.378 324.508 309.432 326.735C308.555 328.892 308.116 332.65 308.116 338.008V343.123Z" fill="white"/>
<path d="M352.433 373.184C349.53 373.184 347.336 372.314 345.85 370.575C344.433 368.766 343.724 366.608 343.724 364.103C343.724 361.529 344.466 359.371 345.952 357.632C347.504 355.892 349.665 355.022 352.433 355.022C355.201 355.022 357.395 355.753 359.015 357.214C360.635 358.675 361.446 360.867 361.446 363.79C361.446 366.713 360.669 369.009 359.116 370.679C357.631 372.349 355.403 373.184 352.433 373.184Z" fill="white"/>
<path d="M393.356 323.291C390.386 323.291 388.259 324.961 386.977 328.301C385.694 331.641 385.053 337.173 385.053 344.897V350.325C385.053 357.214 385.795 362.155 387.28 365.147C388.766 368.139 391.5 369.635 395.483 369.635C399.466 369.635 402.639 368.244 405.002 365.46C407.365 362.677 408.884 359.511 409.559 355.962L411.382 356.17C410.099 362.155 407.736 366.469 404.293 369.113C400.783 371.827 395.956 373.184 389.812 373.184C381.981 373.184 375.972 371.027 371.787 366.713C367.601 362.329 365.508 355.962 365.508 347.611C365.508 339.191 367.871 332.72 372.597 328.197C377.39 323.673 384.04 321.412 392.546 321.412C398.555 321.412 403.146 322.63 406.319 325.065C409.492 327.431 411.078 330.423 411.078 334.042C411.078 337.66 410.302 340.305 408.749 341.975C407.264 343.645 405.171 344.48 402.47 344.48C399.838 344.48 397.711 343.749 396.091 342.288C394.47 340.826 393.66 338.669 393.66 335.816C393.66 334.564 393.829 333.311 394.167 332.059H397.508C397.981 330.667 398.217 329.414 398.217 328.301C398.217 324.961 396.597 323.291 393.356 323.291Z" fill="white"/>
<path d="M446.663 351.578V342.705C446.663 335.955 446.292 331.05 445.549 327.988C444.874 324.856 443.254 323.291 440.688 323.291C439.203 323.291 437.988 323.743 437.043 324.648C436.165 325.483 435.524 326.909 435.119 328.927C434.511 332.059 434.207 336.825 434.207 343.227V351.369C434.207 358.954 434.41 363.512 434.815 365.043C435.288 366.574 435.76 367.826 436.233 368.8C436.975 370.47 438.427 371.305 440.587 371.305C443.22 371.305 444.942 369.74 445.752 366.608C446.359 364.382 446.663 359.371 446.663 351.578ZM440.385 373.184C431.946 373.184 425.566 370.958 421.245 366.504C416.924 362.05 414.764 355.683 414.764 347.402C414.764 339.052 417.06 332.65 421.65 328.197C426.309 323.673 432.823 321.412 441.195 321.412C449.566 321.412 455.811 323.499 459.929 327.675C464.047 331.78 466.106 338.078 466.106 346.567C466.106 364.312 457.532 373.184 440.385 373.184Z" fill="white"/>
<path d="M142.453 301.62C131.988 301.62 126.756 312.023 126.756 332.829V341.075C126.756 350.957 128.14 358.715 130.908 364.352C133.676 369.919 137.761 372.702 143.161 372.702C150.588 372.702 157.406 365.257 163.617 350.365H165.44L164.731 373.642H163.617C163.212 372.876 162.841 372.354 162.503 372.076C162.166 371.728 161.66 371.554 160.984 371.554C160.377 371.554 157.946 372.111 153.693 373.224C149.44 374.268 145.119 374.79 140.731 374.79C129.727 374.79 121.187 371.728 115.111 365.605C109.102 359.481 106.098 350.295 106.098 338.048C106.098 325.731 109.237 316.233 115.516 309.552C121.862 302.872 130.368 299.532 141.035 299.532C145.153 299.532 149.17 300.089 153.086 301.202C157.069 302.246 159.398 302.768 160.073 302.768C160.748 302.768 161.254 302.629 161.592 302.35C161.93 302.002 162.301 301.446 162.706 300.68H163.82L164.63 323.331H162.807C159.769 316.302 156.63 310.944 153.389 307.256C150.216 303.498 146.571 301.62 142.453 301.62Z" fill="#AA2626"/>
<path d="M204.596 353.183V344.311C204.596 337.561 204.225 332.655 203.482 329.593C202.807 326.462 201.187 324.896 198.622 324.896C197.136 324.896 195.921 325.349 194.976 326.253C194.098 327.088 193.457 328.515 193.052 330.533C192.444 333.664 192.141 338.431 192.141 344.833V352.975C192.141 360.56 192.343 365.117 192.748 366.648C193.221 368.179 193.693 369.432 194.166 370.406C194.909 372.076 196.36 372.911 198.52 372.911C201.153 372.911 202.875 371.345 203.685 368.214C204.293 365.987 204.596 360.977 204.596 353.183ZM198.318 374.79C189.879 374.79 183.499 372.563 179.178 368.11C174.858 363.656 172.697 357.289 172.697 349.008C172.697 340.658 174.993 334.256 179.583 329.802C184.242 325.279 190.757 323.018 199.128 323.018C207.499 323.018 213.744 325.105 217.862 329.28C221.981 333.386 224.04 339.684 224.04 348.173C224.04 365.918 215.466 374.79 198.318 374.79Z" fill="#AA2626"/>
<path d="M247.429 352.14C247.429 359.446 247.8 364.317 248.543 366.753C249.286 369.119 250.636 370.302 252.594 370.302C254.619 370.302 256.341 369.397 257.758 367.588C259.244 365.779 259.986 363.099 259.986 359.551V336.796C259.986 333.803 259.412 331.264 258.265 329.176C257.117 327.088 255.429 326.045 253.201 326.045C250.973 326.045 249.454 327.575 248.644 330.637C247.834 333.699 247.429 339.057 247.429 346.712V352.14ZM261.303 373.746L260.189 366.44C257.893 372.007 253.235 374.79 246.214 374.79C240.408 374.79 235.885 372.633 232.644 368.318C229.471 364.004 227.885 357.567 227.885 349.008C227.885 331.681 234.568 323.018 247.935 323.018C253.876 323.018 257.792 324.722 259.682 328.132V297.34H253.505V295.461H278.822V371.867H283.784V373.746H261.303Z" fill="#AA2626"/>
<path d="M313.039 374.79C304.33 374.79 297.781 372.494 293.393 367.901C289.072 363.239 286.912 356.802 286.912 348.591C286.912 340.31 289.343 333.977 294.203 329.593C299.132 325.209 305.376 323.018 312.938 323.018C328.263 323.018 335.621 330.95 335.014 346.816H306.457V350.887C306.457 357.706 307.301 362.856 308.988 366.335C310.676 369.815 313.613 371.554 317.799 371.554C325.63 371.554 330.761 367.24 333.191 358.611L335.014 358.924C333.731 363.934 331.402 367.831 328.026 370.615C324.718 373.398 319.723 374.79 313.039 374.79ZM306.558 344.729H316.988V339.614C316.988 333.977 316.651 330.15 315.976 328.132C315.368 326.045 314.085 325.001 312.128 325.001C310.237 325.001 308.82 326.114 307.874 328.341C306.997 330.498 306.558 334.256 306.558 339.614V344.729Z" fill="#AA2626"/>
<path d="M350.875 374.79C347.972 374.79 345.778 373.92 344.292 372.181C342.875 370.371 342.166 368.214 342.166 365.709C342.166 363.134 342.908 360.977 344.394 359.237C345.946 357.498 348.107 356.628 350.875 356.628C353.643 356.628 355.837 357.359 357.457 358.82C359.077 360.281 359.888 362.473 359.888 365.396C359.888 368.318 359.111 370.615 357.558 372.285C356.073 373.955 353.845 374.79 350.875 374.79Z" fill="#AA2626"/>
<path d="M391.798 324.896C388.828 324.896 386.701 326.566 385.419 329.907C384.136 333.247 383.495 338.779 383.495 346.503V351.931C383.495 358.82 384.237 363.761 385.722 366.753C387.208 369.745 389.942 371.241 393.925 371.241C397.908 371.241 401.081 369.849 403.444 367.066C405.807 364.282 407.326 361.116 408.001 357.567L409.824 357.776C408.541 363.761 406.178 368.075 402.735 370.719C399.225 373.433 394.398 374.79 388.254 374.79C380.423 374.79 374.414 372.633 370.229 368.318C366.043 363.934 363.95 357.567 363.95 349.217C363.95 340.797 366.313 334.325 371.039 329.802C375.832 325.279 382.482 323.018 390.988 323.018C396.997 323.018 401.588 324.235 404.761 326.671C407.934 329.037 409.52 332.029 409.52 335.647C409.52 339.266 408.744 341.91 407.191 343.58C405.706 345.25 403.613 346.086 400.913 346.086C398.28 346.086 396.153 345.355 394.533 343.894C392.912 342.432 392.102 340.275 392.102 337.422C392.102 336.169 392.271 334.917 392.609 333.664H395.95C396.423 332.273 396.659 331.02 396.659 329.907C396.659 326.566 395.039 324.896 391.798 324.896Z" fill="#AA2626"/>
<path d="M445.105 353.183V344.311C445.105 337.561 444.734 332.655 443.991 329.593C443.316 326.462 441.696 324.896 439.13 324.896C437.645 324.896 436.43 325.349 435.485 326.253C434.607 327.088 433.966 328.515 433.561 330.533C432.953 333.664 432.649 338.431 432.649 344.833V352.975C432.649 360.56 432.852 365.117 433.257 366.648C433.73 368.179 434.202 369.432 434.675 370.406C435.417 372.076 436.869 372.911 439.029 372.911C441.662 372.911 443.384 371.345 444.194 368.214C444.801 365.987 445.105 360.977 445.105 353.183ZM438.827 374.79C430.388 374.79 424.008 372.563 419.687 368.11C415.366 363.656 413.206 357.289 413.206 349.008C413.206 340.658 415.502 334.256 420.092 329.802C424.751 325.279 431.265 323.018 439.637 323.018C448.008 323.018 454.253 325.105 458.371 329.28C462.489 333.386 464.548 339.684 464.548 348.173C464.548 365.918 455.975 374.79 438.827 374.79Z" fill="#AA2626"/>
<path d="M147.243 248.04C147.243 262.375 143.328 272.36 135.497 277.997C128.273 283.216 118.349 285.825 105.724 285.825H77.0656V283.842H83.7492V214.743H77.0656V212.759H108.357C121.319 212.759 131.041 215.508 137.522 221.005C144.003 226.433 147.243 235.445 147.243 248.04ZM103.496 283.842H107.344C114.163 283.842 119.024 281.372 121.927 276.431C124.897 271.421 126.383 263.071 126.383 251.38V245.326C126.383 229.669 123.48 220.24 117.674 217.039C114.906 215.508 110.99 214.743 105.927 214.743H103.496V283.842Z" fill="#AA2626"/>
<path d="M179.029 286.869C170.32 286.869 163.772 284.573 159.384 279.98C155.063 275.318 152.903 268.881 152.903 260.67C152.903 252.389 155.333 246.057 160.194 241.673C165.122 237.289 171.367 235.097 178.928 235.097C194.253 235.097 201.612 243.03 201.004 258.895H172.447V262.966C172.447 269.786 173.291 274.935 174.979 278.414C176.667 281.894 179.603 283.633 183.789 283.633C191.62 283.633 196.751 279.319 199.182 270.69L201.004 271.004C199.722 276.014 197.392 279.911 194.017 282.694C190.709 285.478 185.713 286.869 179.029 286.869ZM172.548 256.808H182.979V251.693C182.979 246.057 182.641 242.229 181.966 240.211C181.359 238.124 180.076 237.08 178.118 237.08C176.228 237.08 174.81 238.193 173.865 240.42C172.987 242.577 172.548 246.335 172.548 251.693V256.808Z" fill="#AA2626"/>
<path d="M201.028 238.019V236.141H231.307V238.019H224.927L237.079 272.674L248.016 238.019H241.231V236.141H254.902V238.019H250.446L235.459 285.825H223.914L205.18 238.019H201.028Z" fill="#AA2626"/>
<path d="M270.824 228.938C267.246 228.938 264.68 227.999 263.128 226.12C261.642 224.241 260.9 221.91 260.9 219.127C260.9 216.343 261.71 214.047 263.33 212.238C265.018 210.428 267.55 209.524 270.925 209.524C274.301 209.524 276.866 210.359 278.621 212.029C280.377 213.629 281.254 215.96 281.254 219.022C281.254 222.014 280.41 224.415 278.723 226.224C277.035 228.034 274.402 228.938 270.824 228.938ZM255.533 236.141H280.343V283.947H286.014V285.825H255.938V283.947H261.507V238.019H255.533V236.141Z" fill="#AA2626"/>
<path d="M312.382 261.296H315.319V253.259C315.319 246.648 314.948 242.229 314.205 240.003C313.53 237.706 312.18 236.558 310.154 236.558C308.939 236.558 307.825 236.906 306.812 237.602C305.867 238.228 305.395 239.133 305.395 240.316C305.395 241.429 305.597 242.577 306.002 243.76H308.534C309.074 245.222 309.344 246.996 309.344 249.084C309.344 251.102 308.5 252.876 306.812 254.407C305.125 255.868 302.998 256.599 300.433 256.599C294.627 256.599 291.724 253.711 291.724 247.936C291.724 239.376 298.779 235.097 312.888 235.097C320.922 235.097 326.458 236.523 329.496 239.376C332.602 242.16 334.154 247.309 334.154 254.825V276.014C334.154 279.632 335.133 281.442 337.091 281.442C339.387 281.442 340.737 277.858 341.142 270.69L342.661 270.795C342.391 276.918 341.277 281.128 339.319 283.425C337.361 285.721 334.154 286.869 329.699 286.869C321.597 286.869 316.939 284.295 315.724 279.145C314.846 281.789 313.53 283.738 311.774 284.99C310.019 286.243 307.454 286.869 304.078 286.869C294.087 286.869 289.091 282.659 289.091 274.239C289.091 269.299 290.981 265.924 294.762 264.114C298.61 262.236 304.483 261.296 312.382 261.296ZM308.331 274.135C308.331 277.753 308.5 280.085 308.838 281.128C309.243 282.172 309.952 282.694 310.964 282.694C312.045 282.694 313.023 281.824 313.901 280.085C314.846 278.275 315.319 275.805 315.319 272.674V262.966H314.61C310.424 262.966 308.331 266.132 308.331 272.465V274.135Z" fill="#AA2626"/>
<path d="M144.128 249.646C144.128 263.981 140.212 273.966 132.381 279.603C125.157 284.822 115.233 287.431 102.608 287.431H73.9496V285.448H80.6332V216.349H73.9496V214.365H105.241C118.203 214.365 127.925 217.114 134.406 222.611C140.887 228.039 144.128 237.051 144.128 249.646ZM100.38 285.448H104.228C111.047 285.448 115.908 282.978 118.811 278.037C121.781 273.027 123.267 264.677 123.267 252.986V246.932C123.267 231.275 120.364 221.846 114.558 218.645C111.79 217.114 107.874 216.349 102.811 216.349H100.38V285.448Z" fill="white"/>
<path d="M175.913 288.475C167.204 288.475 160.656 286.179 156.268 281.586C151.947 276.924 149.787 270.487 149.787 262.276C149.787 253.995 152.217 247.663 157.078 243.279C162.006 238.895 168.251 236.703 175.812 236.703C191.137 236.703 198.496 244.636 197.888 260.501H169.331V264.572C169.331 271.392 170.175 276.541 171.863 280.02C173.551 283.5 176.487 285.239 180.673 285.239C188.504 285.239 193.635 280.925 196.066 272.296L197.888 272.609C196.606 277.62 194.277 281.517 190.901 284.3C187.593 287.083 182.597 288.475 175.913 288.475ZM169.432 258.414H179.863V253.299C179.863 247.663 179.525 243.835 178.85 241.817C178.243 239.73 176.96 238.686 175.002 238.686C173.112 238.686 171.694 239.799 170.749 242.026C169.871 244.183 169.432 247.941 169.432 253.299V258.414Z" fill="white"/>
<path d="M197.912 239.625V237.747H228.191V239.625H221.811L233.963 274.28L244.9 239.625H238.115V237.747H251.786V239.625H247.33L232.343 287.431H220.798L202.064 239.625H197.912Z" fill="white"/>
<path d="M267.708 230.544C264.13 230.544 261.564 229.605 260.012 227.726C258.526 225.847 257.784 223.516 257.784 220.733C257.784 217.949 258.594 215.653 260.214 213.844C261.902 212.034 264.434 211.13 267.809 211.13C271.185 211.13 273.75 211.965 275.505 213.635C277.261 215.235 278.138 217.566 278.138 220.628C278.138 223.62 277.295 226.021 275.607 227.83C273.919 229.64 271.286 230.544 267.708 230.544ZM252.417 237.747H277.227V285.553H282.898V287.431H252.822V285.553H258.391V239.625H252.417V237.747Z" fill="white"/>
<path d="M309.266 262.902H312.203V254.865C312.203 248.254 311.832 243.835 311.089 241.609C310.414 239.312 309.064 238.164 307.038 238.164C305.823 238.164 304.709 238.512 303.696 239.208C302.751 239.834 302.279 240.739 302.279 241.922C302.279 243.035 302.481 244.183 302.886 245.366H305.418C305.958 246.828 306.228 248.602 306.228 250.69C306.228 252.708 305.384 254.482 303.696 256.013C302.009 257.474 299.882 258.205 297.317 258.205C291.511 258.205 288.608 255.317 288.608 249.541C288.608 240.982 295.663 236.703 309.772 236.703C317.806 236.703 323.342 238.129 326.38 240.982C329.486 243.766 331.038 248.915 331.038 256.431V277.62C331.038 281.238 332.017 283.047 333.975 283.047C336.271 283.047 337.621 279.464 338.026 272.296L339.545 272.401C339.275 278.524 338.161 282.734 336.203 285.031C334.245 287.327 331.038 288.475 326.583 288.475C318.481 288.475 313.823 285.901 312.608 280.751C311.73 283.395 310.414 285.344 308.658 286.596C306.903 287.849 304.338 288.475 300.962 288.475C290.971 288.475 285.975 284.265 285.975 275.845C285.975 270.905 287.865 267.53 291.646 265.72C295.494 263.842 301.367 262.902 309.266 262.902ZM305.215 275.741C305.215 279.359 305.384 281.691 305.722 282.734C306.127 283.778 306.836 284.3 307.848 284.3C308.929 284.3 309.907 283.43 310.785 281.691C311.73 279.881 312.203 277.411 312.203 274.28V264.572H311.494C307.308 264.572 305.215 267.738 305.215 274.071V275.741Z" fill="white"/>
</svg>
