<svg width="600" height="469" viewBox="0 0 600 469" fill="none" xmlns="http://www.w3.org/2000/svg">
<path d="M579.272 352.77C579.272 405.149 523.972 447.619 455.778 447.619H142.549C74.3394 447.619 19.0476 405.149 19.0476 352.77V112.216C19.0476 59.8311 74.3394 17.3669 142.549 17.3669H455.778C523.972 17.3669 579.272 59.8311 579.272 112.216V352.77V352.77Z" stroke="#171717" stroke-width="10" stroke-miterlimit="10"/>
<path d="M491.531 180.036C504.362 212.098 488.78 248.484 456.718 261.328C424.669 274.159 388.263 258.583 375.439 226.515L343.99 147.967C331.159 115.905 346.741 79.5124 378.803 66.6814C410.865 53.8441 447.251 69.4322 460.089 101.494L491.531 180.036Z" stroke="#171717" stroke-width="10" stroke-miterlimit="10"/>
<path d="M403.982 132.937L394.298 107.479" stroke="#171717" stroke-width="10" stroke-miterlimit="10" stroke-linecap="round"/>
<path d="M428.739 66.1431C430.988 69.848 432.989 73.8256 434.681 78.0572L466.123 156.599C478.954 188.661 469.326 222.662 444.612 232.569C419.904 242.463 389.459 224.496 376.628 192.428L345.179 113.88C343.841 110.528 342.744 107.158 341.889 103.794" stroke="#171717" stroke-width="10" stroke-miterlimit="10"/>
<path d="M144.011 300.014C133.546 300.014 128.314 310.417 128.314 331.223V339.469C128.314 349.351 129.698 357.11 132.466 362.746C135.234 368.313 139.319 371.096 144.719 371.096C152.146 371.096 158.964 363.651 165.175 348.759H166.998L166.289 372.036H165.175C164.77 371.27 164.399 370.749 164.061 370.47C163.724 370.122 163.218 369.948 162.542 369.948C161.935 369.948 159.504 370.505 155.251 371.618C150.998 372.662 146.677 373.184 142.289 373.184C131.285 373.184 122.745 370.122 116.669 363.999C110.66 357.875 107.656 348.69 107.656 336.442C107.656 324.125 110.795 314.627 117.074 307.947C123.42 301.266 131.926 297.926 142.593 297.926C146.711 297.926 150.728 298.483 154.644 299.596C158.627 300.64 160.956 301.162 161.631 301.162C162.306 301.162 162.812 301.023 163.15 300.744C163.488 300.396 163.859 299.84 164.264 299.074H165.378L166.188 321.725H164.365C161.327 314.696 158.188 309.338 154.947 305.65C151.774 301.892 148.129 300.014 144.011 300.014Z" fill="#171717"/>
<path d="M206.154 351.577V342.705C206.154 335.955 205.783 331.049 205.04 327.987C204.365 324.856 202.745 323.29 200.18 323.29C198.694 323.29 197.479 323.743 196.534 324.647C195.656 325.482 195.015 326.909 194.61 328.927C194.002 332.058 193.699 336.825 193.699 343.227V351.369C193.699 358.954 193.901 363.512 194.306 365.042C194.779 366.573 195.251 367.826 195.724 368.8C196.467 370.47 197.918 371.305 200.078 371.305C202.711 371.305 204.433 369.74 205.243 366.608C205.851 364.381 206.154 359.371 206.154 351.577ZM199.876 373.184C191.437 373.184 185.057 370.957 180.736 366.504C176.416 362.05 174.255 355.683 174.255 347.402C174.255 339.052 176.551 332.65 181.141 328.196C185.8 323.673 192.315 321.412 200.686 321.412C209.057 321.412 215.302 323.499 219.42 327.674C223.539 331.78 225.598 338.078 225.598 346.567C225.598 364.312 217.024 373.184 199.876 373.184Z" fill="#171717"/>
<path d="M248.987 350.534C248.987 357.84 249.358 362.711 250.101 365.147C250.844 367.513 252.194 368.696 254.152 368.696C256.177 368.696 257.899 367.791 259.316 365.982C260.802 364.173 261.544 361.493 261.544 357.945V335.19C261.544 332.197 260.97 329.658 259.823 327.57C258.675 325.482 256.987 324.439 254.759 324.439C252.531 324.439 251.012 325.969 250.202 329.031C249.392 332.093 248.987 337.451 248.987 345.106V350.534ZM262.861 372.14L261.747 364.834C259.451 370.401 254.793 373.184 247.772 373.184C241.966 373.184 237.443 371.027 234.202 366.712C231.029 362.398 229.443 355.961 229.443 347.402C229.443 330.075 236.126 321.412 249.493 321.412C255.434 321.412 259.35 323.116 261.24 326.526V295.734H255.063V293.855H280.38V370.261H285.342V372.14H262.861Z" fill="#171717"/>
<path d="M314.597 373.184C305.888 373.184 299.339 370.888 294.951 366.295C290.63 361.633 288.47 355.196 288.47 346.985C288.47 338.704 290.901 332.371 295.761 327.987C300.69 323.604 306.934 321.412 314.496 321.412C329.821 321.412 337.179 329.344 336.572 345.21H308.015V349.281C308.015 356.101 308.859 361.25 310.546 364.729C312.234 368.209 315.171 369.948 319.356 369.948C327.188 369.948 332.319 365.634 334.749 357.005L336.572 357.318C335.289 362.329 332.96 366.225 329.584 369.009C326.276 371.792 321.281 373.184 314.597 373.184ZM308.116 343.123H318.546V338.008C318.546 332.371 318.209 328.544 317.534 326.526C316.926 324.439 315.643 323.395 313.686 323.395C311.795 323.395 310.378 324.508 309.432 326.735C308.555 328.892 308.116 332.65 308.116 338.008V343.123Z" fill="#171717"/>
<path d="M352.433 373.184C349.53 373.184 347.336 372.314 345.85 370.575C344.433 368.765 343.724 366.608 343.724 364.103C343.724 361.528 344.466 359.371 345.952 357.631C347.504 355.892 349.665 355.022 352.433 355.022C355.201 355.022 357.395 355.753 359.015 357.214C360.635 358.675 361.446 360.867 361.446 363.79C361.446 366.712 360.669 369.009 359.116 370.679C357.631 372.349 355.403 373.184 352.433 373.184Z" fill="#171717"/>
<path d="M393.356 323.29C390.386 323.29 388.259 324.96 386.977 328.301C385.694 331.641 385.053 337.173 385.053 344.897V350.325C385.053 357.214 385.795 362.155 387.28 365.147C388.766 368.139 391.5 369.635 395.483 369.635C399.466 369.635 402.639 368.243 405.002 365.46C407.365 362.676 408.884 359.51 409.559 355.961L411.382 356.17C410.099 362.155 407.736 366.469 404.293 369.113C400.783 371.827 395.956 373.184 389.812 373.184C381.981 373.184 375.972 371.027 371.787 366.712C367.601 362.329 365.508 355.961 365.508 347.611C365.508 339.191 367.871 332.719 372.597 328.196C377.39 323.673 384.04 321.412 392.546 321.412C398.555 321.412 403.146 322.629 406.319 325.065C409.492 327.431 411.078 330.423 411.078 334.042C411.078 337.66 410.302 340.304 408.749 341.974C407.264 343.645 405.171 344.48 402.47 344.48C399.838 344.48 397.711 343.749 396.091 342.288C394.47 340.826 393.66 338.669 393.66 335.816C393.66 334.563 393.829 333.311 394.167 332.058H397.508C397.981 330.667 398.217 329.414 398.217 328.301C398.217 324.96 396.597 323.29 393.356 323.29Z" fill="#171717"/>
<path d="M446.663 351.577V342.705C446.663 335.955 446.292 331.049 445.549 327.987C444.874 324.856 443.254 323.29 440.688 323.29C439.203 323.29 437.988 323.743 437.043 324.647C436.165 325.482 435.524 326.909 435.119 328.927C434.511 332.058 434.207 336.825 434.207 343.227V351.369C434.207 358.954 434.41 363.512 434.815 365.042C435.288 366.573 435.76 367.826 436.233 368.8C436.975 370.47 438.427 371.305 440.587 371.305C443.22 371.305 444.942 369.74 445.752 366.608C446.359 364.381 446.663 359.371 446.663 351.577ZM440.385 373.184C431.946 373.184 425.566 370.957 421.245 366.504C416.924 362.05 414.764 355.683 414.764 347.402C414.764 339.052 417.06 332.65 421.65 328.196C426.309 323.673 432.823 321.412 441.195 321.412C449.566 321.412 455.811 323.499 459.929 327.674C464.047 331.78 466.106 338.078 466.106 346.567C466.106 364.312 457.533 373.184 440.385 373.184Z" fill="#171717"/>
<path d="M140.453 301.619C129.988 301.619 124.756 312.023 124.756 332.829V341.075C124.756 350.956 126.14 358.715 128.908 364.352C131.676 369.919 135.761 372.702 141.161 372.702C148.588 372.702 155.406 365.256 161.617 350.365H163.44L162.731 373.642H161.617C161.212 372.876 160.841 372.354 160.503 372.076C160.166 371.728 159.66 371.554 158.984 371.554C158.377 371.554 155.946 372.111 151.693 373.224C147.44 374.268 143.119 374.79 138.731 374.79C127.727 374.79 119.187 371.728 113.111 365.604C107.102 359.481 104.098 350.295 104.098 338.048C104.098 325.731 107.237 316.233 113.516 309.552C119.862 302.872 128.368 299.532 139.035 299.532C143.153 299.532 147.17 300.088 151.086 301.202C155.069 302.246 157.398 302.768 158.073 302.768C158.748 302.768 159.254 302.628 159.592 302.35C159.93 302.002 160.301 301.445 160.706 300.68H161.82L162.63 323.33H160.807C157.769 316.302 154.63 310.944 151.389 307.256C148.216 303.498 144.571 301.619 140.453 301.619Z" fill="#AA2626"/>
<path d="M202.596 353.183V344.311C202.596 337.561 202.225 332.655 201.482 329.593C200.807 326.462 199.187 324.896 196.622 324.896C195.136 324.896 193.921 325.348 192.976 326.253C192.098 327.088 191.457 328.515 191.052 330.533C190.444 333.664 190.141 338.431 190.141 344.833V352.974C190.141 360.559 190.343 365.117 190.748 366.648C191.221 368.179 191.693 369.432 192.166 370.406C192.909 372.076 194.36 372.911 196.52 372.911C199.153 372.911 200.875 371.345 201.685 368.214C202.293 365.987 202.596 360.977 202.596 353.183ZM196.318 374.79C187.879 374.79 181.499 372.563 177.178 368.109C172.858 363.656 170.697 357.289 170.697 349.008C170.697 340.657 172.993 334.256 177.583 329.802C182.242 325.279 188.757 323.017 197.128 323.017C205.499 323.017 211.744 325.105 215.862 329.28C219.981 333.386 222.04 339.683 222.04 348.173C222.04 365.917 213.466 374.79 196.318 374.79Z" fill="#AA2626"/>
<path d="M245.429 352.139C245.429 359.446 245.8 364.317 246.543 366.753C247.286 369.118 248.636 370.301 250.594 370.301C252.619 370.301 254.341 369.397 255.758 367.588C257.244 365.778 257.986 363.099 257.986 359.55V336.795C257.986 333.803 257.412 331.263 256.265 329.176C255.117 327.088 253.429 326.044 251.201 326.044C248.973 326.044 247.454 327.575 246.644 330.637C245.834 333.699 245.429 339.057 245.429 346.712V352.139ZM259.303 373.746L258.189 366.439C255.893 372.006 251.235 374.79 244.214 374.79C238.408 374.79 233.885 372.633 230.644 368.318C227.471 364.004 225.885 357.567 225.885 349.008C225.885 331.681 232.568 323.017 245.935 323.017C251.876 323.017 255.792 324.722 257.682 328.132V297.34H251.505V295.461H276.822V371.867H281.784V373.746H259.303Z" fill="#AA2626"/>
<path d="M311.039 374.79C302.33 374.79 295.781 372.493 291.393 367.901C287.072 363.238 284.912 356.802 284.912 348.59C284.912 340.31 287.343 333.977 292.203 329.593C297.132 325.209 303.376 323.017 310.938 323.017C326.263 323.017 333.621 330.95 333.014 346.816H304.457V350.887C304.457 357.706 305.301 362.856 306.988 366.335C308.676 369.814 311.613 371.554 315.799 371.554C323.63 371.554 328.761 367.24 331.191 358.611L333.014 358.924C331.731 363.934 329.402 367.831 326.026 370.615C322.718 373.398 317.723 374.79 311.039 374.79ZM304.558 344.728H314.988V339.614C314.988 333.977 314.651 330.15 313.976 328.132C313.368 326.044 312.085 325 310.128 325C308.237 325 306.82 326.114 305.874 328.341C304.997 330.498 304.558 334.256 304.558 339.614V344.728Z" fill="#AA2626"/>
<path d="M348.875 374.79C345.972 374.79 343.778 373.92 342.292 372.18C340.875 370.371 340.166 368.214 340.166 365.709C340.166 363.134 340.908 360.977 342.394 359.237C343.946 357.497 346.107 356.628 348.875 356.628C351.643 356.628 353.837 357.358 355.457 358.82C357.077 360.281 357.888 362.473 357.888 365.396C357.888 368.318 357.111 370.615 355.558 372.285C354.073 373.955 351.845 374.79 348.875 374.79Z" fill="#AA2626"/>
<path d="M389.798 324.896C386.828 324.896 384.701 326.566 383.419 329.906C382.136 333.247 381.495 338.779 381.495 346.503V351.931C381.495 358.82 382.237 363.76 383.722 366.753C385.208 369.745 387.942 371.241 391.925 371.241C395.908 371.241 399.081 369.849 401.444 367.066C403.807 364.282 405.326 361.116 406.001 357.567L407.824 357.776C406.541 363.76 404.178 368.075 400.735 370.719C397.225 373.433 392.398 374.79 386.254 374.79C378.423 374.79 372.414 372.633 368.229 368.318C364.043 363.934 361.95 357.567 361.95 349.217C361.95 340.797 364.313 334.325 369.039 329.802C373.832 325.279 380.482 323.017 388.988 323.017C394.997 323.017 399.588 324.235 402.761 326.671C405.934 329.037 407.52 332.029 407.52 335.647C407.52 339.266 406.744 341.91 405.191 343.58C403.706 345.25 401.613 346.085 398.913 346.085C396.28 346.085 394.153 345.355 392.533 343.893C390.912 342.432 390.102 340.275 390.102 337.422C390.102 336.169 390.271 334.917 390.609 333.664H393.95C394.423 332.272 394.659 331.02 394.659 329.906C394.659 326.566 393.039 324.896 389.798 324.896Z" fill="#AA2626"/>
<path d="M443.105 353.183V344.311C443.105 337.561 442.734 332.655 441.991 329.593C441.316 326.462 439.696 324.896 437.13 324.896C435.645 324.896 434.43 325.348 433.485 326.253C432.607 327.088 431.966 328.515 431.561 330.533C430.953 333.664 430.649 338.431 430.649 344.833V352.974C430.649 360.559 430.852 365.117 431.257 366.648C431.73 368.179 432.202 369.432 432.675 370.406C433.417 372.076 434.869 372.911 437.029 372.911C439.662 372.911 441.384 371.345 442.194 368.214C442.801 365.987 443.105 360.977 443.105 353.183ZM436.827 374.79C428.388 374.79 422.008 372.563 417.687 368.109C413.366 363.656 411.206 357.289 411.206 349.008C411.206 340.657 413.502 334.256 418.092 329.802C422.751 325.279 429.265 323.017 437.637 323.017C446.008 323.017 452.253 325.105 456.371 329.28C460.489 333.386 462.548 339.683 462.548 348.173C462.548 365.917 453.975 374.79 436.827 374.79Z" fill="#AA2626"/>
<path d="M147.243 248.04C147.243 262.375 143.328 272.36 135.497 277.997C128.273 283.216 118.349 285.825 105.724 285.825H77.0656V283.842H83.7492V214.743H77.0656V212.759H108.357C121.319 212.759 131.041 215.508 137.522 221.005C144.003 226.433 147.243 235.445 147.243 248.04ZM103.496 283.842H107.344C114.163 283.842 119.024 281.372 121.927 276.431C124.897 271.421 126.383 263.071 126.383 251.38V245.326C126.383 229.669 123.48 220.24 117.674 217.039C114.906 215.508 110.99 214.743 105.927 214.743H103.496V283.842Z" fill="#AA2626"/>
<path d="M179.029 286.869C170.32 286.869 163.772 284.573 159.384 279.98C155.063 275.318 152.903 268.881 152.903 260.67C152.903 252.389 155.333 246.057 160.194 241.673C165.122 237.289 171.367 235.097 178.928 235.097C194.253 235.097 201.612 243.03 201.004 258.895H172.447V262.966C172.447 269.786 173.291 274.935 174.979 278.414C176.667 281.894 179.603 283.633 183.789 283.633C191.62 283.633 196.751 279.319 199.182 270.69L201.004 271.004C199.722 276.014 197.392 279.911 194.017 282.694C190.709 285.478 185.713 286.869 179.029 286.869ZM172.548 256.808H182.979V251.693C182.979 246.057 182.641 242.229 181.966 240.211C181.359 238.124 180.076 237.08 178.118 237.08C176.228 237.08 174.81 238.193 173.865 240.42C172.987 242.577 172.548 246.335 172.548 251.693V256.808Z" fill="#AA2626"/>
<path d="M201.028 238.019V236.141H231.307V238.019H224.927L237.079 272.674L248.016 238.019H241.231V236.141H254.902V238.019H250.446L235.459 285.825H223.914L205.18 238.019H201.028Z" fill="#AA2626"/>
<path d="M270.824 228.938C267.246 228.938 264.68 227.999 263.128 226.12C261.642 224.241 260.9 221.91 260.9 219.127C260.9 216.343 261.71 214.047 263.33 212.238C265.018 210.428 267.55 209.524 270.925 209.524C274.301 209.524 276.866 210.359 278.621 212.029C280.377 213.629 281.254 215.96 281.254 219.022C281.254 222.014 280.41 224.415 278.723 226.224C277.035 228.034 274.402 228.938 270.824 228.938ZM255.533 236.141H280.343V283.947H286.014V285.825H255.938V283.947H261.507V238.019H255.533V236.141Z" fill="#AA2626"/>
<path d="M312.382 261.296H315.319V253.259C315.319 246.648 314.947 242.229 314.205 240.003C313.53 237.706 312.18 236.558 310.154 236.558C308.939 236.558 307.825 236.906 306.812 237.602C305.867 238.228 305.395 239.133 305.395 240.316C305.395 241.429 305.597 242.577 306.002 243.76H308.534C309.074 245.222 309.344 246.996 309.344 249.084C309.344 251.102 308.5 252.876 306.812 254.407C305.125 255.868 302.998 256.599 300.433 256.599C294.627 256.599 291.724 253.711 291.724 247.936C291.724 239.376 298.779 235.097 312.888 235.097C320.922 235.097 326.458 236.523 329.496 239.376C332.602 242.16 334.154 247.309 334.154 254.825V276.014C334.154 279.632 335.133 281.442 337.091 281.442C339.387 281.442 340.737 277.858 341.142 270.69L342.661 270.795C342.391 276.918 341.277 281.128 339.319 283.425C337.361 285.721 334.154 286.869 329.699 286.869C321.597 286.869 316.939 284.295 315.724 279.145C314.846 281.789 313.53 283.738 311.774 284.99C310.019 286.243 307.454 286.869 304.078 286.869C294.087 286.869 289.091 282.659 289.091 274.239C289.091 269.299 290.981 265.924 294.762 264.114C298.61 262.236 304.483 261.296 312.382 261.296ZM308.331 274.135C308.331 277.753 308.5 280.085 308.838 281.128C309.243 282.172 309.952 282.694 310.964 282.694C312.045 282.694 313.023 281.824 313.901 280.085C314.846 278.275 315.319 275.805 315.319 272.674V262.966H314.61C310.424 262.966 308.331 266.132 308.331 272.465V274.135Z" fill="#AA2626"/>
<path d="M145.178 248.516C145.178 262.851 141.262 272.837 133.431 278.473C126.207 283.692 116.283 286.302 103.659 286.302H75V284.319H81.6836V215.219H75V213.236H106.291C119.254 213.236 128.975 215.984 135.456 221.482C141.937 226.91 145.178 235.921 145.178 248.516ZM101.431 284.319H105.279C112.097 284.319 116.958 281.848 119.861 276.908C122.832 271.897 124.317 263.547 124.317 251.856V245.802C124.317 230.145 121.414 220.716 115.608 217.515C112.84 215.984 108.924 215.219 103.861 215.219H101.431V284.319Z" fill="#171717"/>
<path d="M176.964 287.346C168.255 287.346 161.706 285.049 157.318 280.457C152.997 275.794 150.837 269.357 150.837 261.146C150.837 252.865 153.267 246.533 158.128 242.149C163.057 237.765 169.301 235.573 176.863 235.573C192.188 235.573 199.546 243.506 198.939 259.372H170.382V263.443C170.382 270.262 171.225 275.411 172.913 278.891C174.601 282.37 177.538 284.11 181.723 284.11C189.555 284.11 194.686 279.795 197.116 271.167L198.939 271.48C197.656 276.49 195.327 280.387 191.951 283.17C188.643 285.954 183.647 287.346 176.964 287.346ZM170.483 257.284H180.913V252.17C180.913 246.533 180.576 242.706 179.901 240.688C179.293 238.6 178.01 237.556 176.052 237.556C174.162 237.556 172.744 238.67 171.799 240.896C170.922 243.054 170.483 246.811 170.483 252.17V257.284Z" fill="#171717"/>
<path d="M198.963 238.496V236.617H229.241V238.496H222.861L235.014 273.15L245.95 238.496H239.165V236.617H252.836V238.496H248.381L233.393 286.302H221.849L203.114 238.496H198.963Z" fill="#171717"/>
<path d="M268.758 229.415C265.18 229.415 262.615 228.475 261.062 226.596C259.577 224.718 258.834 222.386 258.834 219.603C258.834 216.819 259.644 214.523 261.265 212.714C262.952 210.905 265.484 210 268.86 210C272.235 210 274.801 210.835 276.556 212.505C278.311 214.106 279.189 216.437 279.189 219.499C279.189 222.491 278.345 224.892 276.657 226.701C274.969 228.51 272.336 229.415 268.758 229.415ZM253.467 236.617H278.277V284.423H283.948V286.302H253.872V284.423H259.442V238.496H253.467V236.617Z" fill="#171717"/>
<path d="M310.316 261.772H313.253V253.735C313.253 247.124 312.882 242.706 312.139 240.479C311.464 238.183 310.114 237.034 308.089 237.034C306.873 237.034 305.759 237.382 304.747 238.078C303.802 238.705 303.329 239.609 303.329 240.792C303.329 241.905 303.532 243.054 303.937 244.237H306.468C307.008 245.698 307.279 247.472 307.279 249.56C307.279 251.578 306.435 253.353 304.747 254.883C303.059 256.345 300.932 257.075 298.367 257.075C292.561 257.075 289.658 254.188 289.658 248.412C289.658 239.853 296.713 235.573 310.823 235.573C318.857 235.573 324.393 237 327.431 239.853C330.536 242.636 332.089 247.786 332.089 255.301V276.49C332.089 280.109 333.068 281.918 335.026 281.918C337.321 281.918 338.671 278.334 339.076 271.167L340.595 271.271C340.325 277.395 339.211 281.605 337.254 283.901C335.296 286.197 332.089 287.346 327.633 287.346C319.532 287.346 314.874 284.771 313.658 279.621C312.781 282.266 311.464 284.214 309.709 285.467C307.954 286.719 305.388 287.346 302.013 287.346C292.021 287.346 287.025 283.136 287.025 274.716C287.025 269.775 288.915 266.4 292.696 264.591C296.544 262.712 302.418 261.772 310.316 261.772ZM306.266 274.611C306.266 278.23 306.435 280.561 306.772 281.605C307.177 282.648 307.886 283.17 308.899 283.17C309.979 283.17 310.958 282.301 311.836 280.561C312.781 278.752 313.253 276.281 313.253 273.15V263.443H312.544C308.359 263.443 306.266 266.609 306.266 272.941V274.611Z" fill="#171717"/>
</svg>
